<svg width="20" height="20" viewBox="0 0 20 20" fill="none" xmlns="http://www.w3.org/2000/svg">
<path d="M9.99988 4.45996V7.91996" stroke="white" stroke-width="1.5" stroke-linecap="round" stroke-linejoin="round"/>
<path d="M12.08 10H15.54" stroke="white" stroke-width="1.5" stroke-linecap="round" stroke-linejoin="round"/>
<path d="M9.99988 12.08V15.54" stroke="white" stroke-width="1.5" stroke-linecap="round" stroke-linejoin="round"/>
<path d="M4.45984 10H7.91984" stroke="white" stroke-width="1.5" stroke-linecap="round" stroke-linejoin="round"/>
<path d="M12.9999 7L13.9999 6" stroke="white" stroke-width="1.5" stroke-linecap="round" stroke-linejoin="round"/>
<path d="M5.99988 14L6.99988 13" stroke="white" stroke-width="1.5" stroke-linecap="round" stroke-linejoin="round"/>
<path d="M12.9999 13L13.9999 14" stroke="white" stroke-width="1.5" stroke-linecap="round" stroke-linejoin="round"/>
<path d="M5.99988 6L6.99988 7" stroke="white" stroke-width="1.5" stroke-linecap="round" stroke-linejoin="round"/>
<path d="M9.99988 1C7.86314 1 5.79611 1.76022 4.16855 3.14466C2.54099 4.52911 1.45909 6.44745 1.11639 8.55652C0.773686 10.6656 1.19254 12.8278 2.29802 14.6563C3.40351 16.4849 5.12349 17.8604 7.1503 18.537C9.1771 19.2135 11.3785 19.1469 13.3607 18.349C15.3428 17.5511 16.9765 16.074 17.9693 14.1819C18.9621 12.2898 19.2494 10.1063 18.7798 8.02178C18.3101 5.93731 17.1142 4.08792 15.4058 2.80447" stroke="#B9BACA" stroke-width="1.5" stroke-linecap="round"/>
</svg>
