<svg width="16" height="19" viewBox="0 0 16 19" fill="none" xmlns="http://www.w3.org/2000/svg">
<g clip-path="url(#clip0_4124_2132)">
<path d="M13.191 18.2662C12.4106 18.2662 11.7467 17.7143 11.5837 16.9512C11.5022 16.5402 11.409 16.0471 11.3042 15.4953C11.0246 13.9102 10.5122 13.2997 9.40569 13.2527H8.25263V12.1255H9.51051C10.815 12.1255 11.6419 11.2567 11.6419 9.92994C11.6419 8.42708 10.7567 7.76957 9.47557 7.76957C9.24263 7.76957 7.71687 7.76957 5.95816 7.76957V17.5969C5.95816 17.9022 5.71357 18.137 5.4224 18.137C5.11957 18.137 4.88663 17.8905 4.88663 17.5969V7.76957C3.52393 7.76957 2.14957 7.76957 1.21781 7.76957C0.588867 7.76957 0.0880432 7.2647 0.0880432 6.63068C0.0880432 6.63068 2.51063 6.63068 4.88663 6.63068V5.25696C4.87498 2.72087 6.57545 0.666168 8.66028 0.666168H12.1544C12.4572 0.666168 12.6902 0.912733 12.6902 1.20626C12.6902 1.49979 12.4456 1.74636 12.1544 1.74636H8.66028C7.16945 1.74636 5.94651 3.31967 5.94651 5.25696V6.6072C7.61204 6.6072 9.05628 6.6072 9.38239 6.6072C10.6752 6.6072 11.5255 6.91247 12.1195 7.55823C12.5853 8.0631 12.8532 8.84976 12.8532 9.75383C12.8532 11.2684 12.0612 12.2899 11.0712 12.7009V12.7478C11.7933 13.0531 12.2243 13.8867 12.4572 15.0843C12.6086 15.8945 12.7484 16.5754 12.8649 17.1038C12.993 17.6439 13.0978 18.0313 13.191 18.2662Z" fill="#53F3C3"/>
<path d="M15.916 9.88299V10.3174C15.916 10.517 15.753 10.6814 15.555 10.6814H15.1473C14.9493 10.6814 14.7863 10.517 14.7863 10.3174V9.88299C14.7863 9.68339 14.9493 9.51901 15.1473 9.51901H15.555C15.7646 9.51901 15.916 9.68339 15.916 9.88299ZM15.8928 12.3486V17.8435C15.8928 18.0431 15.7297 18.2075 15.5317 18.2075H15.1823C14.9843 18.2075 14.8212 18.0431 14.8212 17.8435V12.3486C14.8212 12.149 14.9843 11.9847 15.1823 11.9847H15.5317C15.7413 11.9847 15.8928 12.149 15.8928 12.3486Z" fill="#53F3C3"/>
</g>
<defs>
<clipPath id="clip0_4124_2132">
<rect width="15.84" height="17.6" fill="white" transform="translate(0.0759277 0.666168)"/>
</clipPath>
</defs>
</svg>
