<svg width="20" height="20" viewBox="0 0 20 20" fill="none" xmlns="http://www.w3.org/2000/svg">
<path d="M11.9101 8.08998C12.4167 8.59654 12.7012 9.28359 12.7012 9.99998C12.7012 10.7164 12.4167 11.4034 11.9101 11.91C11.4035 12.4165 10.7165 12.7011 10.0001 12.7011C9.28371 12.7011 8.59666 12.4165 8.0901 11.91C7.58353 11.4034 7.29895 10.7164 7.29895 9.99998C7.29895 9.64526 7.36882 9.29401 7.50456 8.96629C7.64031 8.63857 7.83927 8.3408 8.0901 8.08998C8.34092 7.83915 8.6387 7.64019 8.96641 7.50444C9.29413 7.3687 9.64538 7.29883 10.0001 7.29883C10.7165 7.29883 11.4035 7.58341 11.9101 8.08998" stroke="white" stroke-width="1.5" stroke-linecap="round" stroke-linejoin="round"/>
<path d="M3.25005 10C3.25005 10.297 3.27705 10.594 3.31305 10.882L1.72505 12.124C1.55473 12.2574 1.43829 12.4478 1.39714 12.6602C1.35598 12.8725 1.39288 13.0926 1.50105 13.28L2.91305 15.723C3.02119 15.9101 3.19316 16.0519 3.39742 16.1224C3.60167 16.193 3.82451 16.1875 4.02505 16.107L5.44705 15.536C5.58548 15.4824 5.73489 15.4634 5.88232 15.4807C6.02975 15.4979 6.17074 15.5509 6.29305 15.635C6.51305 15.781 6.74105 15.915 6.97705 16.035C7.24705 16.172 7.44305 16.417 7.48605 16.717L7.70305 18.23C7.76605 18.672 8.14505 19 8.59105 19H11.4081C11.624 19 11.8326 18.9221 11.9957 18.7807C12.1589 18.6393 12.2655 18.4437 12.2961 18.23L12.5131 16.718C12.5367 16.5712 12.5957 16.4323 12.6848 16.3134C12.774 16.1944 12.8908 16.0989 13.0251 16.035C13.2601 15.917 13.4871 15.784 13.7061 15.639C13.8287 15.554 13.9702 15.5002 14.1184 15.4825C14.2665 15.4647 14.4168 15.4834 14.5561 15.537L15.9751 16.107C16.1756 16.1873 16.3984 16.1927 16.6026 16.1221C16.8068 16.0516 16.9788 15.9099 17.0871 15.723L18.4991 13.28C18.6072 13.0926 18.6441 12.8725 18.603 12.6602C18.5618 12.4478 18.4454 12.2574 18.2751 12.124L16.6871 10.882C16.7231 10.594 16.7501 10.297 16.7501 10C16.7501 9.703 16.7231 9.406 16.6871 9.118L18.2751 7.876C18.4454 7.74261 18.5618 7.55222 18.603 7.33984C18.6441 7.12745 18.6072 6.90735 18.4991 6.72L17.0871 4.277C16.9789 4.08991 16.8069 3.94809 16.6027 3.87755C16.3984 3.80702 16.1756 3.8125 15.9751 3.893L14.5561 4.463C14.4167 4.51634 14.2665 4.53492 14.1184 4.51715C13.9703 4.49938 13.8288 4.44578 13.7061 4.361C13.4871 4.21555 13.2597 4.08332 13.0251 3.965C12.8908 3.90113 12.774 3.8056 12.6848 3.68663C12.5957 3.56766 12.5367 3.4288 12.5131 3.282L12.2971 1.77C12.2665 1.55627 12.1599 1.36074 11.9967 1.2193C11.8336 1.07785 11.625 0.999991 11.4091 1H8.59205C8.37615 0.999991 8.16749 1.07785 8.00437 1.2193C7.84125 1.36074 7.73462 1.55627 7.70405 1.77L7.48605 3.284C7.4624 3.43026 7.40377 3.56865 7.31515 3.68739C7.22653 3.80613 7.11054 3.90171 6.97705 3.966C6.74105 4.086 6.51305 4.221 6.29305 4.366C6.17036 4.44971 6.02918 4.50236 5.88164 4.51943C5.7341 4.5365 5.58462 4.51748 5.44605 4.464L4.02505 3.893C3.82451 3.8125 3.60167 3.80702 3.39742 3.87755C3.19316 3.94809 3.02119 4.08991 2.91305 4.277L1.50105 6.72C1.39288 6.90735 1.35598 7.12745 1.39714 7.33984C1.43829 7.55222 1.55473 7.74261 1.72505 7.876L3.31305 9.118C3.27385 9.41042 3.25281 9.70498 3.25005 10V10Z" stroke="white" stroke-width="1.5" stroke-linecap="round" stroke-linejoin="round"/>
</svg>
