<svg width="21" height="20" viewBox="0 0 21 20" fill="none" xmlns="http://www.w3.org/2000/svg">
<path fill-rule="evenodd" clip-rule="evenodd" d="M18.706 5.85101H2.11296C1.5405 5.85101 1.0759 6.31562 1.0759 6.88808V8.96221C1.0759 9.53467 1.5405 9.99928 2.11296 9.99928H18.706C19.2785 9.99928 19.7431 9.53467 19.7431 8.96221V6.88808C19.7431 6.31562 19.2785 5.85101 18.706 5.85101Z" stroke="#53F3C3" stroke-linecap="round" stroke-linejoin="round"/>
<path d="M10.4095 19.3329V5.85101" stroke="#53F3C3" stroke-linecap="round" stroke-linejoin="round"/>
<path d="M14.2424 4.41159C13.1245 5.57518 11.3646 5.85104 10.5121 5.85104" stroke="#53F3C3" stroke-linecap="round" stroke-linejoin="round"/>
<path d="M10.5121 5.85103C10.5121 5.85103 9.9998 2.61954 11.2598 1.30869" stroke="#53F3C3" stroke-linecap="round" stroke-linejoin="round"/>
<path d="M14.2424 4.41155C15.0659 3.55493 15.0659 2.16526 14.2424 1.30865C13.419 0.452029 12.0843 0.452029 11.2609 1.30865" stroke="#53F3C3" stroke-linecap="round" stroke-linejoin="round"/>
<path d="M6.57651 4.41159C7.69446 5.57518 9.45437 5.85104 10.3068 5.85104" stroke="#53F3C3" stroke-linecap="round" stroke-linejoin="round"/>
<path d="M10.3068 5.85103C10.3068 5.85103 10.8191 2.61954 9.55906 1.30869" stroke="#53F3C3" stroke-linecap="round" stroke-linejoin="round"/>
<path d="M6.57643 4.41155C5.753 3.55493 5.753 2.16526 6.57643 1.30865C7.39987 0.452029 8.73457 0.452029 9.558 1.30865" stroke="#53F3C3" stroke-linecap="round" stroke-linejoin="round"/>
<path d="M17.6689 9.99928V18.2958C17.6689 18.8683 17.2043 19.3329 16.6318 19.3329H4.18703C3.61457 19.3329 3.14996 18.8683 3.14996 18.2958V9.99928" stroke="#53F3C3" stroke-linecap="round" stroke-linejoin="round"/>
</svg>
