<svg width="66" height="27" viewBox="0 0 66 27" fill="none" xmlns="http://www.w3.org/2000/svg">
<path d="M2.11064 25C1.45248 25 0.930496 24.8184 0.544681 24.4553C0.18156 24.0922 0 23.5816 0 22.9234V3.0766C0 2.41844 0.18156 1.9078 0.544681 1.54468C0.930496 1.18156 1.45248 1 2.11064 1H8.85106C12.7773 1 15.8184 2.05532 17.9745 4.16596C20.1532 6.2539 21.2426 9.19291 21.2426 12.983C21.2426 16.7957 20.1532 19.7574 17.9745 21.8681C15.8184 23.956 12.7773 25 8.85106 25H2.11064ZM8.57872 21.4255C14.0936 21.4255 16.8511 18.6113 16.8511 12.983C16.8511 7.37731 14.0936 4.57447 8.57872 4.57447H4.39149V21.4255H8.57872Z" fill="white"/>
<path d="M27.7755 25C27.1174 25 26.5954 24.8184 26.2096 24.4553C25.8465 24.0922 25.6649 23.5816 25.6649 22.9234V3.0766C25.6649 2.41844 25.8465 1.9078 26.2096 1.54468C26.5954 1.18156 27.1174 1 27.7755 1H40.0649C40.7231 1 41.2337 1.14752 41.5968 1.44255C41.9599 1.73759 42.1415 2.15745 42.1415 2.70213C42.1415 3.2695 41.9599 3.71206 41.5968 4.02979C41.2337 4.32482 40.7231 4.47234 40.0649 4.47234H29.9543V11.0766H39.384C40.0422 11.0766 40.5528 11.2241 40.916 11.5191C41.2791 11.8142 41.4606 12.2454 41.4606 12.8128C41.4606 13.3574 41.2791 13.7773 40.916 14.0723C40.5528 14.3674 40.0422 14.5149 39.384 14.5149H29.9543V21.5277H40.0649C40.7231 21.5277 41.2337 21.6865 41.5968 22.0043C41.9599 22.2993 42.1415 22.7305 42.1415 23.2979C42.1415 23.8426 41.9599 24.2624 41.5968 24.5574C41.2337 24.8525 40.7231 25 40.0649 25H27.7755Z" fill="white"/>
<path d="M47.2479 2.78723L55.3283 10.8677L63.4087 2.78723" stroke="#53F3C3" stroke-width="3.6766" stroke-linecap="round" stroke-linejoin="round"/>
<path d="M63.4087 24.234L55.3283 16.1536L47.2479 24.234" stroke="#FF6370" stroke-width="3.6766" stroke-linecap="round" stroke-linejoin="round"/>
</svg>
